<svg width="481" height="481" viewBox="0 0 481 481" fill="none" xmlns="http://www.w3.org/2000/svg">
<g id="idea 2">
<g id="Light" filter="url(#filter0_d)">
<path d="M316.8 261.6C294.4 284 297.2 329.2 297.2 329.2H183.6C183.6 329.2 186 284 164 261.6C139.6 240 124 208.8 124 174C124 110 176 58 240 58C304 58 356 110 356 174C356 208.8 340.8 240 316.8 261.6Z" fill="white"/>
<path d="M316.466 261.228L316.456 261.237L316.446 261.246C305.131 272.562 300.21 289.595 298.105 303.726C297.052 310.803 296.7 317.175 296.613 321.778C296.569 324.08 296.591 325.941 296.624 327.227C296.64 327.864 296.659 328.361 296.674 328.7H184.121C184.134 328.361 184.149 327.863 184.16 327.223C184.183 325.937 184.191 324.076 184.131 321.775C184.012 317.172 183.623 310.8 182.544 303.725C180.39 289.595 175.47 272.564 164.357 261.25L164.344 261.237L164.331 261.226C140.03 239.713 124.5 208.646 124.5 174C124.5 110.276 176.276 58.5 240 58.5C303.724 58.5 355.5 110.276 355.5 174C355.5 208.651 340.366 239.718 316.466 261.228Z" stroke="black"/>
</g>
<g id="All">
<g id="Screw">
<path id="Vector" d="M300 365.4C300 371.4 295.2 376.2 289.2 376.2H190.4C184.4 376.2 179.6 371.4 179.6 365.4C179.6 359.4 184.4 354.6 190.4 354.6H288.8C294.8 354.6 300 359.4 300 365.4Z" fill="#E5E5E5"/>
<path id="Vector_2" d="M285.2 410.2C285.2 416.2 280.4 421 274.4 421H205.2C199.2 421 194.4 416.2 194.4 410.2C194.4 404.2 199.2 399.4 205.2 399.4H274.4C280.4 399.4 285.2 404.2 285.2 410.2Z" fill="#E5E5E5"/>
</g>
<path id="Vector_3" d="M322.4 266.2C348.4 242.6 363.2 209.4 363.2 174.6C363.2 106.6 307.6 51 239.6 51C171.6 51 116 106.6 116 174.6C116 210.2 131.6 244.2 158 267.4C177.6 287 175.6 328.6 175.6 329C175.6 331 176.4 333 177.6 334.6C179.2 336.2 181.2 337 183.2 337H296.4C298.4 337 300.4 336.2 302 334.6C303.6 333 304 331 304 329C304 328.6 302 287 321.6 267.4C322 267 322.4 266.6 322.4 266.2ZM311.2 256.2C310.4 256.6 310 257.4 309.6 258.2C292 277 289.2 307.8 288.8 322.2H190.8C190.4 307.4 187.2 275.4 168.4 256.6C144.8 235.8 131.2 206.2 131.2 175C131.2 115 180 66.6 239.6 66.6C299.6 66.6 348 115.4 348 175C348 205.8 334.8 235.8 311.2 256.2Z" fill="#210B20"/>
<path id="Vector_4" d="M239.6 83C235.6 83 232 86.2 232 90.6C232 94.6 235.2 98.2 239.6 98.2C284.4 98.2 320.8 134.6 320.8 179.4C320.8 183.4 324 187 328.4 187C332.4 187 336 183.8 336 179.4C336 126.2 292.8 83 239.6 83Z" fill="#210B20"/>
<path id="Vector_5" d="M307.6 365.4C307.6 355 299.2 347 289.2 347H190.4C180 347 172 355.4 172 365.4C172 375.8 180.4 383.8 190.4 383.8H288.8C299.2 383.8 307.6 375.8 307.6 365.4ZM288.8 368.6H190.4C188.4 368.6 187.2 367 187.2 365.4C187.2 363.4 188.8 362.2 190.4 362.2H288.8C290.8 362.2 292 363.8 292 365.4C292.4 367.4 290.8 368.6 288.8 368.6Z" fill="#210B20"/>
<path id="Vector_6" d="M274.4 391.8H205.2C194.8 391.8 186.8 400.2 186.8 410.2C186.8 420.6 195.2 428.6 205.2 428.6H274.4C284.8 428.6 292.8 420.2 292.8 410.2C292.8 400.2 284.4 391.8 274.4 391.8ZM274.4 413.4H205.2C203.2 413.4 202 411.8 202 410.2C202 408.2 203.6 407 205.2 407H274.4C276.4 407 277.6 408.6 277.6 410.2C277.6 412.2 276.4 413.4 274.4 413.4Z" fill="#210B20"/>
</g>
</g>
<defs>
<filter id="filter0_d" x="120" y="58" width="240" height="279.2" filterUnits="userSpaceOnUse" color-interpolation-filters="sRGB">
<feFlood flood-opacity="0" result="BackgroundImageFix"/>
<feColorMatrix in="SourceAlpha" type="matrix" values="0 0 0 0 0 0 0 0 0 0 0 0 0 0 0 0 0 0 127 0"/>
<feOffset dy="4"/>
<feGaussianBlur stdDeviation="2"/>
<feColorMatrix type="matrix" values="0 0 0 0 0 0 0 0 0 0 0 0 0 0 0 0 0 0 0.25 0"/>
<feBlend mode="normal" in2="BackgroundImageFix" result="effect1_dropShadow"/>
<feBlend mode="normal" in="SourceGraphic" in2="effect1_dropShadow" result="shape"/>
</filter>
</defs>
</svg>
